<?xml version="1.0" standalone="no"?>
<!DOCTYPE svg PUBLIC "-//W3C//DTD SVG 20010904//EN"
 "http://www.w3.org/TR/2001/REC-SVG-20010904/DTD/svg10.dtd">
<svg version="1.0" xmlns="http://www.w3.org/2000/svg"
 width="24.000000pt" height="24.000000pt" viewBox="0 0 24.000000 24.000000"
 preserveAspectRatio="xMidYMid meet">
<metadata>
Created by potrace 1.16, written by Peter Selinger 2001-2019
</metadata>
<g transform="translate(0.000000,24.000000) scale(0.100000,-0.100000)"
fill="#000000" stroke="none">
<path d="M167 214 c-3 -4 -30 -7 -58 -8 -59 -2 -76 -17 -98 -84 -20 -59 -11
-72 51 -74 36 -1 43 -2 21 -5 -46 -6 -41 -25 5 -21 29 2 37 7 37 23 0 17 -8
20 -52 23 -93 5 -57 17 42 14 83 -3 94 -1 89 12 -4 12 0 16 15 16 16 0 21 6
21 25 0 13 -6 28 -12 32 -7 4 -18 17 -24 27 -12 22 -27 30 -37 20z"/>
</g>
</svg>
