<?xml version="1.0" standalone="no"?>
<!DOCTYPE svg PUBLIC "-//W3C//DTD SVG 20010904//EN"
 "http://www.w3.org/TR/2001/REC-SVG-20010904/DTD/svg10.dtd">
<svg version="1.0" xmlns="http://www.w3.org/2000/svg" viewBox="0 0 512.000000 512.000000"
 preserveAspectRatio="xMidYMid meet">

<g transform="translate(0.000000,512.000000) scale(0.100000,-0.100000)"
fill="#FF904D" stroke="none">
<path d="M3363 4301 c-87 -40 -131 -147 -120 -292 l6 -77 -57 -25 c-111 -49
-176 -61 -332 -61 -173 1 -254 19 -481 109 -175 69 -294 101 -441 116 -353 37
-586 -48 -848 -311 -63 -63 -144 -157 -180 -208 -222 -315 -383 -735 -421
-1092 -9 -86 -18 -121 -49 -191 -82 -181 -114 -339 -114 -564 -1 -150 1 -165
27 -240 40 -114 99 -207 186 -295 202 -203 502 -326 881 -361 370 -34 791 61
1070 242 155 100 310 255 310 311 0 34 -39 78 -69 78 -11 0 -96 -23 -188 -51
-403 -121 -712 -182 -928 -183 -125 0 -150 3 -230 28 -172 53 -354 158 -475
276 -75 74 -110 132 -110 183 0 79 56 204 123 275 l31 32 132 0 132 0 34 -42
c48 -63 77 -85 129 -103 41 -14 124 -15 670 -13 601 3 625 4 663 23 22 11 49
32 59 47 27 37 33 112 13 168 -9 25 -18 49 -19 53 -1 5 29 18 66 30 l68 20
174 -172 173 -173 274 4 c249 3 276 5 312 23 62 31 81 65 81 143 0 56 -5 76
-31 122 -50 90 -170 158 -311 178 l-48 7 -3 56 c-3 55 -2 56 38 84 98 68 214
231 320 450 37 77 74 157 81 177 11 32 18 39 48 44 378 61 765 362 788 611 21
226 -258 373 -787 415 -136 10 -149 13 -202 44 -129 74 -274 124 -363 124 -22
0 -59 -9 -82 -19z m206 -171 c46 -16 120 -51 165 -78 l81 -49 130 -7 c383 -19
695 -125 695 -237 0 -48 -48 -130 -119 -200 -150 -149 -376 -260 -559 -276
-45 -4 -81 -12 -92 -22 -11 -9 -35 -59 -56 -111 -47 -123 -144 -313 -206 -405
-51 -77 -159 -185 -184 -185 -8 0 -26 -11 -39 -25 -24 -23 -25 -28 -25 -175 0
-144 1 -152 23 -174 18 -18 38 -24 102 -29 139 -11 235 -52 264 -111 11 -24
11 -30 0 -37 -8 -5 -109 -9 -224 -9 l-210 0 -147 148 -146 147 -81 162 c-44
89 -89 167 -100 173 -51 27 -121 -11 -121 -65 0 -14 23 -70 50 -125 28 -55 50
-104 50 -109 0 -9 -104 -36 -181 -46 -28 -4 -73 0 -114 10 -36 8 -77 15 -90
15 -30 0 -41 19 -50 95 -23 189 -130 406 -279 563 -143 150 -221 180 -262 100
-24 -46 -11 -71 69 -137 121 -101 210 -225 267 -372 32 -84 60 -223 60 -301 0
-69 30 -98 100 -98 68 0 176 -25 224 -53 41 -23 82 -79 71 -97 -4 -7 -206 -10
-606 -10 l-600 0 -19 23 c-74 86 -108 116 -145 126 -22 6 -105 11 -185 11
-122 0 -152 -4 -188 -20 -127 -58 -246 -271 -246 -445 -1 -112 29 -170 154
-296 215 -217 529 -357 800 -359 140 0 414 42 640 100 45 12 87 19 92 18 15
-5 -173 -91 -266 -122 -174 -58 -263 -70 -496 -70 -186 0 -229 3 -320 23 -412
89 -691 301 -755 573 -40 169 3 454 96 644 38 79 49 111 49 150 0 128 55 385
122 569 159 438 422 782 703 921 143 70 271 87 479 64 128 -15 201 -35 382
-106 88 -35 209 -76 270 -91 97 -24 127 -27 269 -27 172 1 238 13 378 69 l64
25 50 -50 c59 -59 98 -66 138 -25 37 36 33 80 -10 119 -56 51 -80 116 -80 217
0 131 17 141 164 89z"/>
<path d="M4035 3871 c-45 -20 -70 -60 -70 -112 0 -42 5 -53 33 -81 28 -28 39
-33 82 -33 43 0 54 5 82 33 28 28 33 39 33 82 0 42 -5 54 -31 81 -33 33 -92
46 -129 30z"/>
</g>
</svg>
